<?xml version="1.0" encoding="iso-8859-1"?>
<!-- Generator: Adobe Illustrator 16.0.0, SVG Export Plug-In . SVG Version: 6.00 Build 0)  -->
<!DOCTYPE svg PUBLIC "-//W3C//DTD SVG 1.1//EN" "http://www.w3.org/Graphics/SVG/1.1/DTD/svg11.dtd">
<svg version="1.1" id="Capa_1" xmlns="http://www.w3.org/2000/svg" xmlns:xlink="http://www.w3.org/1999/xlink" x="0px" y="0px"
	 width="187.057px" height="187.058px" viewBox="0 0 187.057 187.058" style="enable-background:new 0 0 187.057 187.058;"
	 xml:space="preserve">
<g>
	<path d="M142.127,16.659C129.617,1.652,104.592-2.011,86.42,0.941c-70.037,11.38-63.438,113.236-22.494,160.993
		c7.631,12.207,19.071,22.95,32.662,24.967c0.043,0.016,0.083,0.036,0.126,0.053c0.003-0.01,0.005-0.019,0.008-0.028
		c0.205,0.029,0.404,0.086,0.611,0.111c0.971,0.12,1.591-0.303,1.921-0.922c0.44-0.264,0.856-0.604,1.199-1.108
		c9.482-13.987,18.654-29.016,26.688-44.693c0.373-0.288,0.708-0.645,0.951-1.138c3.212-6.545,6.357-13.243,8.99-20.104
		c7.141-16.919,12.62-34.375,15.401-51.963C155.274,49.47,153.935,30.822,142.127,16.659z M76.293,69.798
		c-5.238-14.597,2.862-29.088,15.227-36.279c0.979,1.375,2.81,2.21,4.455,1.133c15.331-10.036,25.36,8.672,25.838,25.672
		c-0.052,1.531-0.082,3.063-0.113,4.594c-0.463,5.829-2.171,11.096-5.328,14.436C104.833,91.559,81.541,84.424,76.293,69.798z"/>
</g>
<g>
</g>
<g>
</g>
<g>
</g>
<g>
</g>
<g>
</g>
<g>
</g>
<g>
</g>
<g>
</g>
<g>
</g>
<g>
</g>
<g>
</g>
<g>
</g>
<g>
</g>
<g>
</g>
<g>
</g>
</svg>
