<?xml version="1.0" encoding="iso-8859-1"?>
<!-- Generator: Adobe Illustrator 19.0.0, SVG Export Plug-In . SVG Version: 6.00 Build 0)  -->
<svg version="1.1" id="Layer_1" xmlns="http://www.w3.org/2000/svg" xmlns:xlink="http://www.w3.org/1999/xlink" x="0px" y="0px"
	 viewBox="0 0 330 330" style="enable-background:new 0 0 330 330;" xml:space="preserve">
<g id="XMLID_809_">
	<path id="XMLID_810_" d="M156.791,327.556c2.493,1.63,5.35,2.444,8.207,2.444c2.857,0,5.715-0.815,8.207-2.444
		c0.634-0.414,15.731-10.345,35.004-28.298c22.655-21.105,41.251-43.957,55.271-67.923c19.623-33.544,29.572-68.286,29.572-103.264
		C293.053,57.452,235.607,0,164.998,0C94.391,0,36.947,57.452,36.947,128.071c0,49.877,20.813,100.251,60.191,145.677
		C126.438,307.546,155.565,326.754,156.791,327.556z M165,98.053c16.542,0,30,13.458,30,30s-13.458,30-30,30s-30-13.458-30-30
		S148.458,98.053,165,98.053z"/>
</g>
<g>
</g>
<g>
</g>
<g>
</g>
<g>
</g>
<g>
</g>
<g>
</g>
<g>
</g>
<g>
</g>
<g>
</g>
<g>
</g>
<g>
</g>
<g>
</g>
<g>
</g>
<g>
</g>
<g>
</g>
</svg>
